# AST/ASF file generated using VICON BodyLanguage
# -----------------------------------------------
:version 1.10
:name VICON
:units
  mass 1.0
  length 0.45
  angle deg
:documentation
   .ast/.asf automatically generated from VICON data using
   VICON BodyBuilder and BodyLanguage model FoxedUp or BRILLIANT.MOD
:root
   order TX TY TZ RX RY RZ
   axis XYZ
   position 0 0 0  
   orientation 0 0 0 
:bonedata
  begin
     id 1 
     name lhipjoint
     direction 0.627457 -0.725269 0.283342 
     length 2.53237 
     axis 0 0 0  XYZ
  end
  begin
     id 2 
     name lfemur
     direction 0.34202 -0.939693 0  
     length 7.32496  
     axis 0 0 20  XYZ
    dof rx ry rz
    limits (-160.0 20.0)
           (-70.0 70.0)
           (-60.0 70.0)
  end
  begin
     id 3 
     name ltibia
     direction 0.34202 -0.939693 0   
     length 7.69674   
     axis 0 0 20   XYZ
    dof rx
    limits (-10.0 170.0)
  end
  begin
     id 4 
     name lfoot
     direction 0.127289 -0.349722 0.928166   
     length 1.8612   
     axis -90 7.62852e-016 20   XYZ
    dof rx rz
    limits (-45.0 90.0)
           (-70.0 20.0)
  end
  begin
     id 5 
     name ltoes
     direction 1.53561e-011 -4.21864e-011 1   
     length 0.925608   
     axis -90 7.62852e-016 20   XYZ
    dof rx
    limits (-90.0 20.0)
  end
  begin
     id 6 
     name rhipjoint
     direction -0.609094 -0.738725 0.288599   
     length 2.48624  
     axis 0 0 0  XYZ 
  end
  begin
     id 7 
     name rfemur
     direction -0.34202 -0.939693 0   
     length 7.44259   
     axis 0 0 -20   XYZ
    dof rx ry rz
    limits (-160.0 20.0)
           (-70.0 70.0)
           (-70.0 60.0)
  end
  begin
     id 8 
     name rtibia
     direction -0.34202 -0.939693 0   
     length 7.7781   
     axis 0 0 -20   XYZ
    dof rx
    limits (-10.0 170.0)
 end
 begin
     id 9 
     name rfoot
     direction -0.107015 -0.294021 0.949789   
     length 2.14741  
     axis -90 -7.62852e-016 -20   XYZ
    dof rx rz
    limits (-45.0 90.0)
           (-20.0 70.0)
  end
  begin
     id 10 
     name rtoes
     direction -1.53497e-011 -4.21924e-011 1   
     length 1.0706   
     axis -90 -7.62852e-016 -20   XYZ
    dof rx
    limits (-90.0 20.0)
  end
  begin
     id 11 
     name lowerback
     direction -0.0142066 0.998112 -0.0597545   
     length 1.86627   
     axis 0 0 0   XYZ
    dof rx ry rz
    limits (-20.0 45.0)
           (-30.0 30.0)
           (-30.0 30.0)
  end
  begin
     id 12 
     name upperback
     direction 0.00547294 0.999744 0.0219437   
     length 1.86272   
     axis 0 0 0   XYZ
    dof rx ry rz
    limits (-20.0 45.0)
           (-30.0 30.0)
           (-30.0 30.0)
  end
  begin
     id 13 
     name thorax
     direction 0.0116162 0.998704 0.0495538   
     length 1.8703   
     axis 0 0 0   XYZ
    dof rx ry rz
    limits (-20.0 45.0)
           (-30.0 30.0)
           (-30.0 30.0)
  end
  begin
     id 14 
     name lowerneck
     direction -0.0106574 0.998739 0.0490586   
     length 1.8074   
     axis 0 0 0   XYZ
    dof rx ry rz
    limits (-20.0 45.0)
           (-30.0 30.0)
           (-30.0 30.0)
  end
  begin
     id 15 
     name upperneck
     direction 0.030527 0.976587 -0.212944   
     length 1.80681   
     axis 0 0 0   XYZ
    dof rx ry rz
    limits (-20.0 45.0)
           (-30.0 30.0)
           (-30.0 30.0)
  end
  begin
     id 16
     name head
     direction 0.00869225 0.997035 -0.0764531  
     length 1.8313  
     axis 0 0 0   XYZ
    dof rx ry rz
    limits (-20.0 45.0)
           (-30.0 30.0)
           (-30.0 30.0)
  end
  begin
     id 17 
     name lclavicle
     direction 0.915958 0.399447 0.0382386  
     length 3.78965  
     axis 0 0 0   XYZ
    dof ry rz
    limits (-20.0 10.0)
           (0.0 20.0)
  end
  begin
     id 18 
     name lhumerus
     direction 1 -4.48967e-011 3.19303e-027   
     length 4.78095   
     axis -180 -30 -90   XYZ
    dof rx ry rz
    limits (-60.0 90.0)
           (-90.0 90.0)
           (-90.0 90.0)
  end
  begin
     id 19
     name lradius
     direction 1 -4.48967e-011 -3.77974e-027   
     length 3.58615   
     axis -180 -30 -90   XYZ
    dof rx
    limits (-10.0 170.0)
  end
  begin
     id 20
     name lwrist
     direction 1 -4.48927e-011 1.2807e-027   
     length 1.79307   
     axis 1.91374e-015 90 90   XYZ
    dof ry
    limits (-180.0 0.0)
 end
  begin
     id 21 
     name lhand
     direction 1 -4.49036e-011 2.5614e-027   
     length 0.659812   
     axis -1.63439e-015 90 90   XYZ
    dof rx rz
    limits (-90.0 90.0)
           (-45.0 45.0)
  end
  begin
     id 22 
     name lfingers
     direction 1 -4.49052e-011 5.1228e-027   
     length 0.531957   
     axis -3.26879e-015 90 90   XYZ
    dof rx
    limits (0.0 90.0)
  end
  begin
     id 23
     name lthumb
     direction 0.707107 -6.35012e-011 0.707107   
     length 0.763787   
     axis -90 45 2.85299e-015   XYZ
    dof rx rz
    limits (-45.0 45.0)
           (-45.0 45.0)
  end
  begin
     id 24 
     name rclavicle
     direction -0.895351 0.435135 0.0948887   
     length 3.70497  
     axis 0 0 0   XYZ 
    dof ry rz
    limits (-10.0 20.0)
           (-20.0 0.0)
  end
  begin
     id 25 
     name rhumerus
     direction -1 -4.48971e-011 2.38946e-027  
     length 4.48913   
     axis -180 30 90   XYZ
    dof rx ry rz
    limits (-90.0 60.0)
           (-90.0 90.0)
           (-90.0 90.0)
  end
  begin
     id 26 
     name rradius
     direction -1 -4.4895e-011 4.38668e-027   
     length 3.7051   
     axis -180 30 90   XYZ
    dof rx
    limits (-10.0 170.0)
  end
  begin
     id 27 
     name rwrist
     direction -1 -4.49007e-011 1.2807e-027   
     length 1.85255   
     axis 1.91374e-015 -90 -90   XYZ
    dof ry
    limits (-180.0 0.0)
  end
  begin
     id 28
     name rhand
     direction -1 -4.48851e-011 2.5614e-027   
     length 0.449136   
     axis -1.63439e-015 -90 -90   XYZ
    dof rx rz
    limits (-90.0 90.0)
           (-45.0 45.0)
  end
  begin
     id 29
     name rfingers
     direction -1 -4.49128e-011 5.1228e-027   
     length 0.362105   
     axis -3.26879e-015 -90 -90   XYZ
    dof rx
    limits (0.0 90.0)
  end
  begin
     id 30
     name rthumb
     direction -0.707107 -6.34851e-011 0.707107   
     length 0.519912   
     axis -90 -45 -2.85299e-015   XYZ
    dof rx rz
    limits (-45.0 45.0)
           (-45.0 45.0)
  end
:hierarchy
  begin
    root lhipjoint rhipjoint lowerback
    lhipjoint lfemur
    lfemur ltibia
    ltibia lfoot
    lfoot ltoes
    rhipjoint rfemur
    rfemur rtibia
    rtibia rfoot
    rfoot rtoes
    lowerback upperback
    upperback thorax
    thorax lowerneck lclavicle rclavicle
    lowerneck upperneck
    upperneck head
    lclavicle lhumerus
    lhumerus lradius
    lradius lwrist
    lwrist lhand lthumb
    lhand lfingers
    rclavicle rhumerus
    rhumerus rradius
    rradius rwrist
    rwrist rhand rthumb
    rhand rfingers
  end

#!OML:ASF I:\Actors\actors\Patient Classification 2\Patient 1\Session 1\actor1.ASF
:FULLY-SPECIFIED
:DEGREES
30
root -1.08908 18.0503 5.8909 -4.1623 -5.42362 -2.95634
lowerback 3.5592 1.5693 1.13275
upperback -0.0661241 2.15484 0.737314
thorax -2.0486 1.06716 0.00849493
lowerneck -12.0532 -0.862186 0.160744
upperneck 18.6326 -1.40592 0.888655
head 7.73704 -0.575139 0.122714
rclavicle 1.11568e-014 -4.77083e-015
rhumerus -50.8486 -8.32499 -83.0345
rradius 40.7789
rwrist 17.7934
rhand -8.10406 -25.4698
rfingers 7.12502
rthumb 17.8087 -54.6744
lclavicle 1.11568e-014 -4.77083e-015
lhumerus -41.3969 7.60972 86.487
lradius 31.8268
lwrist -8.75205
lhand -6.39891 -28.1611
lfingers 7.12502
lthumb 19.4488 0.88627
rfemur 16.7565 2.30575 18.9119
rtibia -6.83584
rfoot -16.3828 -13.3491
rtoes 5.61171
lfemur 21.4679 -11.7816 -15.1749
ltibia -13.6511
lfoot -8.86506 21.6889
ltoes -5.23687
31
root -1.08686 18.0515 5.896 -4.13545 -5.44723 -2.93428
lowerback 3.52494 1.56135 1.11833
upperback -0.0805594 2.14315 0.731483
thorax -2.0446 1.06145 0.0119688
lowerneck -11.9678 -0.805167 0.215519
upperneck 18.5913 -1.33942 0.898601
head 7.70755 -0.539204 0.124074
rclavicle -1.44119e-014 -1.07344e-014
rhumerus -50.8569 -8.34175 -82.9003
rradius 40.7285
rwrist 17.8124
rhand -8.03985 -25.3488
rfingers 7.12502
rthumb 17.8705 -54.5477
lclavicle -1.44119e-014 -1.07344e-014
lhumerus -41.2795 7.47173 86.3934
lradius 31.7159
lwrist -9.10789
lhand -6.14724 -27.8308
lfingers 7.12502
lthumb 19.6908 1.1919
rfemur 16.7255 2.33414 18.8785
rtibia -6.81341
rfoot -16.4172 -13.3403
rtoes 5.6286
lfemur 21.4893 -11.8957 -15.2416
ltibia -13.6761
lfoot -9.00589 21.8111
ltoes -4.82223
32
root -1.08446 18.0515 5.90129 -4.12179 -5.47784 -2.92564
lowerback 3.52066 1.56359 1.12931
upperback -0.0858633 2.14663 0.733727
thorax -2.0473 1.06305 0.00798656
lowerneck -11.8932 -0.717533 0.262101
upperneck 18.5109 -1.23526 0.942899
head 7.66736 -0.482748 0.141806
rclavicle 1.80273e-014 3.57812e-015
rhumerus -50.814 -8.34587 -82.7803
rradius 40.6698
rwrist 17.8332
rhand -8.01184 -25.4185
rfingers 7.12502
rthumb 17.8974 -54.6149
lclavicle 1.80273e-014 3.57812e-015
lhumerus -41.532 6.73757 86.6534
lradius 32.5264
lwrist -8.82217
lhand -6.02183 -26.6598
lfingers 7.12502
lthumb 19.8114 2.35054
rfemur 16.7327 2.3671 18.8649
rtibia -6.83498
rfoot -16.4197 -13.3476
rtoes 5.74004
lfemur 21.5113 -11.9932 -15.2935
ltibia -13.6722
lfoot -9.10284 21.9079
ltoes -4.73615
33
root -1.08237 18.0501 5.90579 -4.12677 -5.4922 -2.92977
lowerback 3.50563 1.55181 1.14679
upperback -0.0454268 2.13128 0.756731
thorax -1.99771 1.05569 0.0237527
lowerneck -12.0052 -0.716377 0.247646
upperneck 18.5223 -1.22328 0.901361
head 7.69091 -0.481523 0.13133
rclavicle 7.83957e-015 -6.55989e-015
rhumerus -50.666 -8.30535 -82.6763
rradius 40.594
rwrist 17.8572
rhand -8.05844 -25.4973
rfingers 7.12502
rthumb 17.8526 -54.6979
lclavicle 7.83957e-015 -6.55989e-015
lhumerus -41.9283 7.05014 86.455
lradius 33.8429
lwrist -9.3912
lhand -5.56321 -25.6968
lfingers 7.12502
lthumb 20.2522 3.26739
rfemur 16.7673 2.38245 18.8664
rtibia -6.87055
rfoot -16.3886 -13.3666
rtoes 5.62119
lfemur 21.5344 -12.0534 -15.3216
ltibia -13.6613
lfoot -9.11332 21.9792
ltoes -4.87353
34
root -1.08028 18.0497 5.90908 -4.12931 -5.47501 -2.91478
lowerback 3.50341 1.52241 1.14572
upperback -0.0257652 2.09188 0.76462
thorax -1.97689 1.03624 0.0348484
lowerneck -12.1124 -0.807826 0.208229
upperneck 18.5715 -1.32774 0.826173
head 7.72638 -0.540718 0.102051
rclavicle 1.44305e-014 -3.57812e-015
rhumerus -50.5576 -8.2561 -82.6141
rradius 40.5633
rwrist 17.7949
rhand -8.25325 -25.4118
rfingers 7.12502
rthumb 17.6651 -54.6294
lclavicle 1.44305e-014 -3.57812e-015
lhumerus -42.2049 6.92665 86.3885
lradius 34.8041
lwrist -9.12179
lhand -5.21298 -25.4512
lfingers 7.12502
lthumb 20.5888 3.47688
rfemur 16.7861 2.3692 18.8416
rtibia -6.88312
rfoot -16.4082 -13.3824
rtoes 5.46883
lfemur 21.5509 -12.1469 -15.3708
ltibia -13.6726
lfoot -9.1273 22.0623
ltoes -4.84029
35
root -1.07853 18.0491 5.91206 -4.14014 -5.48172 -2.91833
lowerback 3.5459 1.50384 1.17629
upperback -0.0420737 2.06916 0.755047
thorax -2.01618 1.02428 0.00757549
lowerneck -12.1087 -0.853311 0.187462
upperneck 18.598 -1.38776 0.831068
head 7.73483 -0.57027 0.100964
rclavicle -1.68843e-014 1.98785e-015
rhumerus -50.5519 -8.25896 -82.5718
rradius 40.6311
rwrist 17.6702
rhand -8.37112 -25.4008
rfingers 7.12502
rthumb 17.5517 -54.6285
lclavicle -1.68843e-014 1.98785e-015
lhumerus -41.8504 7.74942 85.786
lradius 33.3563
lwrist -9.58765
lhand -5.66159 -27.3916
lfingers 7.12502
lthumb 20.1576 1.58263
rfemur 16.8113 2.37822 18.8386
rtibia -6.89277
rfoot -16.4292 -13.374
rtoes 5.56571
lfemur 21.5901 -12.2451 -15.4049
ltibia -13.6869
lfoot -9.2176 22.1531
ltoes -4.67632
36
root -1.07719 18.0483 5.91506 -4.14228 -5.52216 -2.94872
lowerback 3.58735 1.48681 1.21634
upperback -0.059804 2.04931 0.764148
thorax -2.05672 1.01372 -0.00597109
lowerneck -12.0973 -0.838018 0.177212
upperneck 18.6159 -1.36665 0.839918
head 7.73876 -0.560078 0.107738
rclavicle 9.32424e-015 1.53064e-014
rhumerus -50.5607 -8.23243 -82.5381
rradius 40.7464
rwrist 17.4687
rhand -8.41724 -25.5437
rfingers 7.12502
rthumb 17.5073 -54.7754
lclavicle 9.32424e-015 1.53064e-014
lhumerus -42.2124 7.1355 85.9845
lradius 34.5345
lwrist -8.8135
lhand -5.53091 -26.6174
lfingers 7.12502
lthumb 20.2832 2.34351
rfemur 16.8247 2.41635 18.8723
rtibia -6.90837
rfoot -16.4121 -13.3864
rtoes 5.49275
lfemur 21.6203 -12.2723 -15.3955
ltibia -13.689
lfoot -9.2812 22.2143
ltoes -4.59551
37
root -1.07517 18.0485 5.91871 -4.12051 -5.55278 -2.94342
lowerback 3.60601 1.46676 1.21314
upperback -0.0923984 2.02344 0.772124
thorax -2.10128 1.00054 0.00425296
lowerneck -12.1128 -0.830873 0.152915
upperneck 18.6659 -1.34841 0.818923
head 7.75795 -0.554839 0.106559
rclavicle -2.69788e-014 -7.35503e-015
rhumerus -50.5498 -8.18704 -82.5022
rradius 40.8252
rwrist 17.2824
rhand -8.37165 -25.6041
rfingers 7.12502
rthumb 17.5512 -54.8319
lclavicle -2.69788e-014 -7.35503e-015
lhumerus -42.5611 7.00206 85.9897
lradius 35.321
lwrist -8.51374
lhand -5.41914 -26.2439
lfingers 7.12502
lthumb 20.3907 2.70558
rfemur 16.7996 2.44788 18.8649
rtibia -6.89954
rfoot -16.4156 -13.4048
rtoes 5.30792
lfemur 21.6198 -12.2659 -15.4139
ltibia -13.6971
lfoot -9.29939 22.2418
ltoes -4.54557
38
root -1.07313 18.0492 5.92267 -4.08882 -5.57146 -2.92638
lowerback 3.60156 1.45824 1.20993
upperback -0.122136 2.01218 0.766351
thorax -2.12931 0.994688 0.000356299
lowerneck -12.1369 -0.847427 0.113155
upperneck 18.7236 -1.36569 0.827059
head 7.78172 -0.564752 0.113863
rclavicle -1.2424e-015 0
rhumerus -50.5368 -8.18704 -82.4651
rradius 40.9282
rwrist 17.1337
rhand -8.27243 -25.5
rfingers 7.12502
rthumb 17.6467 -54.7192
lclavicle -1.2424e-015 0
lhumerus -41.4747 7.31797 85.795
lradius 32.6796
lwrist -8.68975
lhand -6.31066 -27.4101
lfingers 7.12502
lthumb 19.5337 1.62864
rfemur 16.7669 2.46948 18.8403
rtibia -6.88573
rfoot -16.4356 -13.3871
rtoes 5.34062
lfemur 21.607 -12.2691 -15.4457
ltibia -13.7034
lfoot -9.31404 22.2691
ltoes -4.54624
39
root -1.07245 18.0497 5.92566 -4.05868 -5.59332 -2.93841
lowerback 3.58742 1.45585 1.21635
upperback -0.136101 2.00935 0.772828
thorax -2.13577 0.993171 0.00372165
lowerneck -12.112 -0.846255 0.0815416
upperneck 18.7113 -1.36399 0.859629
head 7.77368 -0.563217 0.130146
rclavicle -2.36243e-014 1.88845e-014
rhumerus -50.5325 -8.16423 -82.4491
rradius 41.0916
rwrist 16.9837
rhand -8.18249 -25.8119
rfingers 7.12502
rthumb 17.7332 -55.0233
lclavicle -2.36243e-014 1.88845e-014
lhumerus -41.0979 7.5222 85.6705
lradius 31.8695
lwrist -8.8313
lhand -6.65443 -27.8112
lfingers 7.12502
lthumb 19.2031 1.2607
rfemur 16.7522 2.49054 18.8503
rtibia -6.90466
rfoot -16.4227 -13.3779
rtoes 5.36121
lfemur 21.589 -12.2663 -15.4337
ltibia -13.6911
lfoot -9.36383 22.2786
ltoes -4.38309
40
root -1.07241 18.0497 5.92971 -4.03177 -5.62375 -2.94878
lowerback 3.5631 1.46039 1.20413
upperback -0.144564 2.01483 0.785195
thorax -2.13165 0.996114 0.0234885
lowerneck -12.0949 -0.826323 0.0822024
upperneck 18.6925 -1.33909 0.873375
head 7.76436 -0.550147 0.137208
rclavicle -5.54112e-015 1.43125e-014
rhumerus -50.4986 -8.1773 -82.3703
rradius 41.0716
rwrist 16.732
rhand -8.59958 -25.7301
rfingers 7.12502
rthumb 17.3318 -54.9773
lclavicle -5.54112e-015 1.43125e-014
lhumerus -41.0599 7.54404 85.6605
lradius 31.9401
lwrist -8.76244
lhand -6.66374 -27.8897
lfingers 7.12502
lthumb 19.1942 1.18316
rfemur 16.761 2.52083 18.8579
rtibia -6.9524
rfoot -16.3919 -13.386
rtoes 5.37339
lfemur 21.5786 -12.3079 -15.4334
ltibia -13.6694
lfoot -9.47993 22.3262
ltoes -3.99031
